<svg width="64" height="64" viewBox="0 0 64 64" fill="none" xmlns="http://www.w3.org/2000/svg">
<path d="M2.02554 47.1587C10.766 40.0713 19.4043 33.069 28.0468 26.0757C28.1021 26.0309 28.2255 26.0757 28.3404 26.0757C28.3404 29.8034 28.3787 33.5311 28.2979 37.2542C28.2979 37.7028 27.7362 38.259 27.3191 38.5999C23.634 41.6144 19.9192 44.5794 16.217 47.549C15.7915 47.881 15.4043 48.2353 14.9872 48.5852C24.8766 58.3327 42.966 56.3186 50.4043 41.9957L44.8 39.0889L63.034 23.8732L64 48.8947L58.6468 46.2033C51.5319 58.4225 41.3319 64.855 27.6128 63.9085C15.6 63.0787 7.51064 56.0719 2.02554 47.1587Z" fill="white"/>
<path d="M13.5915 21.9803L19.1957 24.9005L0.970213 40.1206C0.642553 31.656 0.323404 23.5054 0 15.126L5.3617 17.8175C12.2681 5.83157 22.234 -0.574078 35.6511 0.0404696C47.1021 0.565302 55.617 6.76909 62.0085 16.7992L35.6596 38.2231C35.6596 34.186 35.6255 30.4807 35.7064 26.7576C35.7064 26.309 36.2511 25.7438 36.6681 25.4118C40.3532 22.4109 44.0681 19.4503 47.7702 16.4718C48.1957 16.1353 48.5872 15.7854 49 15.4355C39.383 5.80465 21.2 7.48232 13.5915 21.9803Z" fill="white"/>
</svg>
